# xmcd
# 
# Track frame offsets:
#     150
#     27685
#     47417
#     63875
#     88605
#     104115
#     120925
#     134035
#     147962
# 
# Disc length: 2357
# 
# Revision: 2
# Processed by: cddbd v1.5.2PL0 Copyright (c) Steve Scherf et al.
# Submitted via: BonkEnc v1.0.8
# 
DISCID=80093309
DTITLE=Patti Austin - End Of A Rainbow
DYEAR=1976
DGENRE=R&B
TTITLE0=Say You Love Me
TTITLE1=In My Life
TTITLE2=You Don't Have To Say You're Sorry
TTITLE3=More Today Than Yesterday
TTITLE4=Give It Time
TTITLE5=There Is No Time
TTITLE6=What's At The End Of A Rainbow
TTITLE7=This Side Of Heaven
TTITLE8=Sweet Sadie The Savior
EXTD=YEAR: 1976
EXTT0=
EXTT1=
EXTT2=
EXTT3=
EXTT4=
EXTT5=
EXTT6=
EXTT7=
EXTT8=
PLAYORDER=
